Coordinates
version=1
nRows=11
nColumns=63
inDegrees=yes

Units are S.I. units (second, meters, Newtons, ...)
If the header above contains a line with 'inDegrees', this indicates whether rotational values are in degrees (yes) or radians (no).

endheader
time	pelvis_tilt	pelvis_list	pelvis_rotation	pelvis_tx	pelvis_ty	pelvis_tz	hip_flexion_r	hip_adduction_r	hip_rotation_r	knee_angle_r	knee_angle_r_beta	ankle_angle_r	subtalar_angle_r	mtp_angle_r	hip_flexion_l	hip_adduction_l	hip_rotation_l	knee_angle_l	knee_angle_l_beta	ankle_angle_l	subtalar_angle_l	mtp_angle_l	L5_S1_Flex_Ext	L5_S1_Lat_Bending	L5_S1_axial_rotation	L4_L5_Flex_Ext	L4_L5_Lat_Bending	L4_L5_axial_rotation	L3_L4_Flex_Ext	L3_L4_Lat_Bending	L3_L4_axial_rotation	L2_L3_Flex_Ext	L2_L3_Lat_Bending	L2_L3_axial_rotation	L1_L2_Flex_Ext	L1_L2_Lat_Bending	L1_L2_axial_rotation	L1_T12_Flex_Ext	L1_T12_Lat_Bending	L1_T12_axial_rotation	Abs_r3	Abs_r2	Abs_r1	Abs_t1	Abs_t2	neck_flexion	neck_bending	neck_rotation	arm_flex_r	arm_add_r	arm_rot_r	elbow_flex_r	pro_sup_r	wrist_flex_r	wrist_dev_r	arm_flex_l	arm_add_l	arm_rot_l	elbow_flex_l	pro_sup_l	wrist_flex_l	wrist_dev_l
      8.05000000	    -52.87860393	     -4.49574014	      0.02141811	     -0.35948531	      0.98620018	      0.03486203	    123.86602397	     -7.98328497	     -4.26484867	     88.84252894	      1.55059465	      2.58910072	     -6.50309880	      0.00000000	     97.19968437	     -6.59720782	      3.56200524	     75.34211964	      1.31496805	    -13.02914932	     -7.97526516	      0.00000000	     -0.09339965	      0.67744345	      0.10426906	     -0.17345249	      0.90099979	      0.11078588	     -0.15344629	      1.64713600	      0.11078588	     -0.10674646	      1.64713600	      0.09123543	     -0.08673092	      1.38144268	      0.08471861	     -0.05336856	      1.04935990	      0.07820180	     -0.66714437	      7.66337577	      0.57991324	      0.00000000	      0.00000000	     -0.00000000	      0.00000000	      0.00000000	     70.79226913	     -9.11856079	      5.25369823	     41.15982006	     46.91371042	      0.00000000	      5.00000014	     67.41507850	     -6.64513606	     -4.47742183	     41.90164696	     48.49184005	      0.00000000	      5.00000014
      8.05800000	    -52.92282634	     -4.30635452	      0.37090759	     -0.35982063	      0.98629300	      0.03500589	    122.97559571	     -8.08089113	     -4.17092045	     86.84213270	      1.51568115	      1.79144194	     -6.61364163	      0.00000000	     98.03643532	     -6.28796060	      3.55736943	     77.25011489	      1.34826885	    -12.86938099	     -7.79882544	      0.00000000	     -0.09321727	      0.63787233	      0.04226150	     -0.17311379	      0.84837020	      0.04490285	     -0.15314665	      1.55092278	      0.04490285	     -0.10653802	      1.55092278	      0.03697881	     -0.08656156	      1.30074925	      0.03433747	     -0.05326435	      0.98806424	      0.03169613	     -0.66584163	      7.21573936	      0.23504580	      0.00000000	      0.00000000	     -0.00000000	      0.00000000	      0.00000000	     70.66746524	     -9.03701191	      4.87062735	     41.28804205	     46.83582159	      0.00000000	      5.00000014	     67.63822856	     -6.63716764	     -4.49880295	     41.85258270	     48.41776875	      0.00000000	      5.00000014
      8.06700000	    -52.96129503	     -4.05705861	      0.75740936	     -0.36013012	      0.98647400	      0.03513465	    122.04049528	     -8.20636903	     -4.03853463	     84.83084879	      1.48057762	      0.89780209	     -6.79998808	      0.00000000	     98.82919886	     -5.96239598	      3.45908104	     79.08997771	      1.38038052	    -12.55708894	     -7.55714238	      0.00000000	     -0.09366781	      0.58991885	     -0.02857987	     -0.17395048	      0.78459207	     -0.03036611	     -0.15388684	      1.43432868	     -0.03036611	     -0.10705294	      1.43432868	     -0.02500739	     -0.08697993	      1.20296251	     -0.02322114	     -0.05352178	      0.91378429	     -0.02143490	     -0.66905978	      6.67327998	     -0.15895266	      0.00000000	      0.00000000	     -0.00000000	      0.00000000	      0.00000000	     70.54851193	     -8.94102432	      4.49338238	     41.36945905	     46.77157386	      0.00000000	      5.00000014	     67.89175782	     -6.66678747	     -4.38326997	     41.72156064	     48.38504834	      0.00000000	      5.00000014
      8.07500000	    -53.00736655	     -3.78321193	      1.15145304	     -0.36040658	      0.98666085	      0.03533381	    121.06985484	     -8.33432650	     -3.91393251	     82.80128379	      1.44515503	     -0.15237362	     -7.22843483	      0.00000000	     99.61410750	     -5.66900752	      3.34001655	     80.91621700	      1.41225440	    -11.89119009	     -7.00059680	      0.00000000	     -0.09292031	      0.53668711	     -0.10210709	     -0.17256231	      0.71379386	     -0.10848878	     -0.15265878	      1.30490104	     -0.10848878	     -0.10619863	      1.30490104	     -0.08934370	     -0.08628580	      1.09441236	     -0.08296201	     -0.05309467	      0.83132834	     -0.07658032	     -0.66372050	      6.07111194	     -0.56788899	      0.00000000	      0.00000000	     -0.00000000	      0.00000000	      0.00000000	     70.38586608	     -8.80142806	      3.99020978	     41.45451665	     46.70328600	      0.00000000	      5.00000014	     68.19506087	     -6.74560631	     -4.02072213	     41.54433155	     48.39974302	      0.00000000	      5.00000014
      8.08300000	    -53.03260969	     -3.53353406	      1.81563842	     -0.36058005	      0.98690415	      0.03521523	    120.06559034	     -8.74666300	     -3.64961900	     80.90622427	      1.41208000	     -0.68761166	     -7.15374045	      0.00000000	    100.37144215	     -5.10433222	      3.15889151	     82.63810493	      1.44230702	    -11.51194395	     -6.97083232	      0.00000000	     -0.09442929	      0.48521168	     -0.23416051	     -0.17536464	      0.64533154	     -0.24879554	     -0.15513788	      1.17974369	     -0.24879554	     -0.10792324	      1.17974369	     -0.20489045	     -0.08768704	      0.98944367	     -0.19025541	     -0.05395690	      0.75159290	     -0.17562038	     -0.67449898	      5.48881161	     -1.30233050	      0.00000000	      0.00000000	     -0.00000000	      0.00000000	      0.00000000	     70.27610911	     -8.72806686	      3.91512870	     41.48261718	     46.69988882	      0.00000000	      5.00000014	     68.44919212	     -6.80002422	     -3.95142660	     41.46268395	     48.41657544	      0.00000000	      5.00000014
      8.09200000	    -53.03815585	     -3.34286677	      2.04243503	     -0.36059034	      0.98714538	      0.03570452	    118.90350317	     -8.79879280	     -3.74701031	     78.84624149	      1.37612652	     -1.62563987	     -7.52642605	      0.00000000	    101.11493029	     -5.05737075	      3.11876005	     84.51333835	      1.47503602	     -9.88926857	     -6.00402217	      0.00000000	     -0.09493001	      0.44154571	     -0.27367646	     -0.17629452	      0.58725580	     -0.29078124	     -0.15596051	      1.07357425	     -0.29078124	     -0.10849551	      1.07357425	     -0.23946690	     -0.08815201	      0.90040002	     -0.22236212	     -0.05424301	      0.68395431	     -0.20525734	     -0.67807557	      4.99485343	     -1.52210636	      0.00000000	      0.00000000	     -0.00000000	      0.00000000	      0.00000000	     70.15010661	     -8.57356559	      3.30221399	     41.30348362	     46.64616878	      0.00000000	      5.00000014	     68.78944600	     -6.90068429	     -3.23102654	     41.02926969	     48.54215145	      0.00000000	      5.00000014
      8.10000000	    -53.06727152	     -3.13194887	      2.55635572	     -0.36060990	      0.98737439	      0.03590434	    117.78827163	     -9.09753653	     -3.71151403	     76.87678603	      1.34175303	     -2.46566517	     -8.06936129	      0.00000000	    101.87531008	     -4.69187380	      3.18234906	     86.28992488	      1.50604330	     -8.16183174	     -4.53699284	      0.00000000	     -0.09154207	      0.39425577	     -0.37601047	     -0.17000278	      0.52436018	     -0.39951112	     -0.15039447	      0.95859348	     -0.39951112	     -0.10462343	      0.95859348	     -0.32900916	     -0.08500597	      0.80396637	     -0.30550851	     -0.05230714	      0.61070219	     -0.28200785	     -0.65387585	      4.45990014	     -2.09125742	      0.00000000	      0.00000000	     -0.00000000	      0.00000000	      0.00000000	     70.01717248	     -8.42145862	      2.85618546	     41.27223502	     46.63796410	      0.00000000	      5.00000014	     69.05876511	     -7.10709540	     -2.52389658	     40.79918074	     48.71150047	      0.00000000	      5.00000014
      8.10800000	    -53.04832247	     -2.98465319	      3.03244864	     -0.36047453	      0.98764237	      0.03601912	    116.53623663	     -9.39334094	     -3.64504436	     74.91937766	      1.30758981	     -2.61927800	     -7.75602690	      0.00000000	    102.62892709	     -4.39423432	      3.06319505	     88.06280868	      1.53698596	     -6.78366710	     -4.41084312	      0.00000000	     -0.09261403	      0.35659459	     -0.46932309	     -0.17199352	      0.47427081	     -0.49865579	     -0.15215559	      0.86702409	     -0.49865579	     -0.10584858	      0.86702409	     -0.41065771	     -0.08600139	      0.72716769	     -0.38132501	     -0.05291966	      0.55236502	     -0.35199232	     -0.66153277	      4.03386934	     -2.61023426	      0.00000000	      0.00000000	     -0.00000000	      0.00000000	      0.00000000	     69.95443425	     -8.34490456	      2.66760185	     41.04029693	     46.60401435	      0.00000000	      5.00000014	     69.27833052	     -7.12066256	     -2.29567677	     40.51845743	     48.71044910	      0.00000000	      5.00000014
      8.11700000	    -53.02762103	     -2.72510250	      3.77748914	     -0.36022069	      0.98775012	      0.03579320	    115.42142258	     -9.93073140	     -3.36865162	     73.18493389	      1.27731806	     -3.04970507	     -7.53348547	      0.00000000	    103.46970099	     -3.84472371	      2.82769510	     89.83207145	      1.56786542	     -6.24765375	     -4.41072287	      0.00000000	     -0.09073194	      0.30420728	     -0.60811932	     -0.16849829	      0.40459568	     -0.64612678	     -0.14906351	      0.73964959	     -0.64612678	     -0.10369753	      0.73964959	     -0.53210441	     -0.08425368	      0.62033949	     -0.49409695	     -0.05184423	      0.47121708	     -0.45608949	     -0.64808918	      3.44125361	     -3.38217723	      0.00000000	      0.00000000	     -0.00000000	      0.00000000	      0.00000000	     69.74649528	     -8.35848424	      2.63221308	     41.07800345	     46.59652353	      0.00000000	      5.00000014	     69.37781504	     -7.10257660	     -2.22049320	     40.54046176	     48.70885071	      0.00000000	      5.00000014
      8.12500000	    -53.01378741	     -2.85550003	      3.77268334	     -0.36001890	      0.98807642	      0.03648595	    113.92565378	     -9.80824718	     -3.88830660	     70.92562579	      1.23788569	     -3.75785524	     -8.17049167	      0.00000000	    104.29884357	     -3.97417201	      3.30860021	     91.67907643	      1.60010174	     -3.45612447	     -3.07775380	      0.00000000	     -0.09273026	      0.30840853	     -0.61690847	     -0.17220936	      0.41018335	     -0.65546525	     -0.15234654	      0.74986451	     -0.65546525	     -0.10598141	      0.74986451	     -0.53979491	     -0.08610932	      0.62890668	     -0.50123813	     -0.05298607	      0.47772482	     -0.46268135	     -0.66236296	      3.48877902	     -3.43105984	      0.00000000	      0.00000000	     -0.00000000	      0.00000000	      0.00000000	     69.75854510	     -8.17384398	      2.26066030	     40.87306861	     46.59749358	      0.00000000	      5.00000014	     69.54119637	     -7.39069637	     -1.26793588	     40.22112614	     48.93564836	      0.00000000	      5.00000014
      8.13300000	    -52.99963090	     -2.63601831	      4.26743915	     -0.35969553	      0.98831910	      0.03654546	    112.63527816	    -10.03430254	     -3.68397008	     68.96122492	      1.20360043	     -4.06754663	     -7.91991888	      0.00000000	    105.13180236	     -3.66056231	      3.13395017	     93.34724118	      1.62921671	     -2.45350767	     -3.30252475	      0.00000000	     -0.09212110	      0.26357876	     -0.71470912	     -0.17107809	      0.35055975	     -0.75937844	     -0.15134575	      0.64086540	     -0.75937844	     -0.10528520	      0.64086540	     -0.62537048	     -0.08554365	      0.53748981	     -0.58070116	     -0.05263800	      0.40828350	     -0.53603184	     -0.65801179	      2.98165564	     -3.97499773	      0.00000000	      0.00000000	     -0.00000000	      0.00000000	      0.00000000	     69.61575264	     -8.10440272	      2.19165527	     40.82060078	     46.58967207	      0.00000000	      5.00000014	     69.60797052	     -7.42758801	     -1.15886807	     40.15265080	     48.94976766	      0.00000000	      5.00000014
